<svg xmlns="http://www.w3.org/2000/svg" xmlns:xlink="http://www.w3.org/1999/xlink" width="530" zoomAndPan="magnify" viewBox="0 0 397.5 53.25" height="71" preserveAspectRatio="xMidYMid meet" version="1.0"><path fill="#f67200" d="M 178.792969 8.46875 C 174.96875 8.402344 171.972656 9.445312 171.144531 12.15625 C 169.4375 17.757812 180.492188 23.769531 185.703125 26.632812 C 186.820312 27.246094 187.300781 26.863281 186.589844 26.042969 C 183.300781 22.25 178.617188 14.777344 185.226562 10.390625 C 185.546875 10.179688 185.9375 9.9375 186.289062 9.734375 L 186.394531 9.675781 L 186.289062 9.65625 C 183.683594 8.941406 181.085938 8.503906 178.792969 8.46875 Z M 214.339844 25.0625 C 213.765625 24.949219 213.625 25.316406 214.160156 25.929688 C 217.449219 29.726562 222.140625 37.195312 215.523438 41.582031 L 215.523438 41.578125 C 215.210938 41.792969 214.824219 42.035156 214.46875 42.242188 L 214.359375 42.304688 L 214.46875 42.316406 C 221.410156 44.226562 228.28125 44.152344 229.605469 39.816406 C 231.3125 34.214844 220.265625 28.203125 215.046875 25.34375 C 214.769531 25.1875 214.53125 25.097656 214.339844 25.0625 Z M 214.339844 25.0625 " fill-opacity="1" fill-rule="nonzero"/><path fill="#de1823" d="M 210.566406 4.171875 C 195.132812 4.171875 186.390625 9.675781 186.390625 9.675781 C 196.640625 11.605469 216.90625 21.925781 223.414062 21.925781 C 225.945312 21.925781 227.164062 19.460938 227.164062 16.53125 C 227.164062 13.113281 225.945312 9.390625 223.703125 7.1875 C 221.578125 5.085938 216.546875 4.171875 210.566406 4.171875 Z M 177.339844 30.046875 C 174.808594 30.046875 173.59375 32.511719 173.59375 35.445312 C 173.59375 38.863281 174.808594 42.582031 177.046875 44.789062 C 179.179688 46.886719 184.210938 47.804688 190.191406 47.804688 C 205.617188 47.804688 214.367188 42.300781 214.367188 42.300781 C 204.117188 40.371094 183.847656 30.046875 177.339844 30.046875 Z M 177.339844 30.046875 " fill-opacity="1" fill-rule="nonzero"/></svg>